<?xml version="1.0" standalone="no"?>
<!DOCTYPE svg PUBLIC "-//W3C//DTD SVG 20010904//EN"
 "http://www.w3.org/TR/2001/REC-SVG-20010904/DTD/svg10.dtd">
<svg version="1.0" xmlns="http://www.w3.org/2000/svg"
 width="512.000000pt" height="512.000000pt" viewBox="0 0 512.000000 512.000000"
 preserveAspectRatio="xMidYMid meet">

<g transform="translate(0.000000,512.000000) scale(0.100000,-0.100000)"
fill="#000000" stroke="none">
<path d="M2410 4794 c-79 -9 -228 -38 -285 -54 -584 -169 -1011 -633 -1137
-1237 -21 -104 -22 -133 -27 -813 l-6 -705 -24 -45 c-13 -25 -95 -147 -181
-271 -87 -124 -166 -241 -177 -260 -28 -53 -26 -209 5 -267 35 -66 88 -119
150 -149 l57 -28 496 -3 495 -3 13 -52 c19 -76 83 -202 141 -279 96 -126 263
-237 430 -284 89 -25 308 -26 400 0 274 74 505 302 570 563 l14 52 495 3 496
3 57 28 c62 30 115 83 150 149 31 58 33 214 5 267 -11 19 -90 136 -177 260
-86 124 -168 246 -181 271 l-24 45 -6 710 c-7 789 -6 780 -80 1004 -183 552
-641 956 -1214 1071 -97 20 -372 34 -455 24z m420 -343 c329 -75 610 -267 797
-546 81 -121 146 -272 185 -435 20 -80 21 -123 28 -800 7 -772 5 -749 63 -872
13 -29 96 -156 184 -283 l160 -230 -843 -3 c-464 -1 -1224 -1 -1688 0 l-843 3
160 230 c88 127 171 254 184 283 58 123 56 100 63 872 7 677 8 720 28 800 82
338 269 610 547 797 153 103 375 185 560 206 87 10 330 -3 415 -22z m176
-3508 c-19 -49 -77 -130 -125 -175 -192 -176 -471 -170 -657 16 -50 50 -114
146 -114 171 0 3 203 5 451 5 425 0 451 -1 445 -17z"/>
</g>
</svg>
