<?xml version="1.0" standalone="no"?>
<!DOCTYPE svg PUBLIC "-//W3C//DTD SVG 20010904//EN"
 "http://www.w3.org/TR/2001/REC-SVG-20010904/DTD/svg10.dtd">
<svg version="1.0" xmlns="http://www.w3.org/2000/svg"
 width="512.000000pt" height="512.000000pt" viewBox="0 0 512.000000 512.000000"
 preserveAspectRatio="xMidYMid meet">

<g transform="translate(0.000000,512.000000) scale(0.100000,-0.100000)"
fill="#000000" stroke="none">
<path d="M3657 5104 c-497 -90 -861 -503 -884 -1004 -23 -504 306 -945 805
-1082 64 -18 107 -21 252 -22 153 -1 186 2 265 22 298 78 548 278 688 550 90
174 123 329 114 535 -6 144 -26 237 -77 360 -98 235 -308 455 -533 557 -200
90 -427 121 -630 84z m388 -334 c248 -77 434 -265 512 -515 14 -47 18 -92 18
-205 -1 -130 -3 -153 -28 -225 -39 -117 -91 -199 -187 -295 -96 -96 -178 -148
-295 -187 -72 -25 -95 -27 -225 -28 -113 0 -158 4 -205 18 -308 95 -521 360
-542 672 -24 371 231 704 597 781 93 19 265 11 355 -16z"/>
<path d="M2195 4473 c-582 -59 -1089 -467 -1270 -1020 -64 -197 -67 -225 -75
-758 -7 -444 -10 -499 -29 -586 -70 -320 -218 -576 -460 -797 -112 -102 -146
-171 -146 -297 0 -80 3 -97 31 -155 39 -83 101 -145 184 -184 l65 -31 532 -3
531 -3 22 -72 c80 -261 287 -462 557 -539 63 -18 103 -22 208 -22 153 0 218
15 350 79 198 96 343 266 411 480 l22 70 534 5 533 5 57 27 c157 73 247 238
218 400 -19 101 -50 149 -188 286 -144 143 -228 259 -302 415 -107 225 -131
338 -139 652 -5 218 -8 243 -27 275 -63 109 -217 109 -276 0 -18 -32 -19 -53
-15 -285 3 -207 8 -269 26 -360 73 -360 241 -665 510 -929 56 -54 101 -105
101 -112 0 -8 -9 -23 -20 -34 -20 -20 -33 -20 -1798 -20 -1711 0 -1780 1
-1795 18 -30 33 -20 55 56 123 256 233 451 573 525 919 35 161 42 275 42 667
0 420 8 510 59 663 165 492 610 810 1134 810 113 0 154 14 190 64 32 45 31
138 -1 184 -40 55 -73 66 -202 68 -63 1 -133 0 -155 -3z m595 -3845 c0 -27
-63 -120 -114 -171 -178 -175 -458 -181 -652 -13 -41 35 -99 115 -122 169
l-12 27 450 0 c353 0 450 -3 450 -12z"/>
</g>
</svg>
