<?xml version="1.0" encoding="utf-8"?>
<!-- Generator: Adobe Illustrator 24.1.0, SVG Export Plug-In . SVG Version: 6.00 Build 0)  -->
<svg version="1.1" id="Layer_1" xmlns="http://www.w3.org/2000/svg" xmlns:xlink="http://www.w3.org/1999/xlink" x="0px" y="0px"
	 viewBox="0 0 442.8 443.08" style="enable-background:new 0 0 442.8 443.08;" xml:space="preserve">
<style type="text/css">
	.st0{fill:#C4E5EC;}
	.st1{clip-path:url(#SVGID_2_);fill:#FFFFFF;}
	.st2{clip-path:url(#SVGID_2_);fill:#174F71;}
	.st3{clip-path:url(#SVGID_2_);fill:#1594C7;}
	.st4{clip-path:url(#SVGID_2_);fill:#1A5478;}
	.st5{fill:#174F71;}
</style>
<rect class="st0" width="442.32" height="443.08"/>
<g>
	<defs>
		<rect id="SVGID_1_" x="17.74" y="59.64" width="407.5" height="383.44"/>
	</defs>
	<clipPath id="SVGID_2_">
		<use xlink:href="#SVGID_1_"  style="overflow:visible;"/>
	</clipPath>
	<path class="st1" d="M373.56,336.31c-0.71-0.25-71.43-25-79.05-28.07c-1.76-0.7-4.04-1.53-6.44-2.41
		c-5.15-1.87-11.55-4.2-15.33-6.27c-1.41-0.77-2.3-2.31-2.31-4.01l-0.36-35.48l-48.59,10.88l-50.78-10.84l-0.36,35.71
		c-0.02,1.6-0.83,3.1-2.13,3.9c-3.82,2.35-10.42,4.91-15.73,6.96c-1.46,0.56-2.83,1.09-4.01,1.56
		c-7.62,3.07-78.33,27.82-79.03,28.06c-1.41,0.48-34.57,12.24-41.88,45.54c-4.03,18.36-6.12,55.04-7.16,60.66h402.19
		c-1.04-5.61-3.13-42.28-7.16-60.66C408.12,348.55,374.95,336.79,373.56,336.31"/>
	<path class="st2" d="M289.03,302.98c-5.05-1.84-11.34-4.12-14.92-6.09c-0.47-0.25-0.75-0.77-0.76-1.37l-0.32-31.77l-0.08-7.42
		l-7.01,1.57l-44.48,9.96l-46.7-9.97l-6.95-1.49l-0.08,7.35l-0.32,32.04c-0.01,0.55-0.28,1.06-0.7,1.32
		c-3.59,2.21-10.34,4.82-15.26,6.72c-1.46,0.56-2.84,1.1-4.04,1.58c-1.27,0.51-4.31,1.63-8.49,3.14c0.87,1.86,1.22,4.01,0.94,6.06
		c4.77-1.72,8.26-3,9.66-3.56c5.49-2.2,15.04-5.58,20.18-8.75c2.17-1.34,3.52-3.79,3.55-6.46l0.32-32.04l47.91,10.23l45.69-10.23
		l0.32,31.77c0.03,2.8,1.52,5.36,3.87,6.64c5.75,3.15,16.54,6.6,22.08,8.83c0.85,0.34,2.46,0.94,4.65,1.75
		c0.77-2.04,2.17-3.82,4.23-4.87c-3.29-1.19-5.68-2.08-6.77-2.52C293.76,304.7,291.47,303.86,289.03,302.98"/>
	<path class="st1" d="M301.44,170.56c-3.36,0-5.94,3.83-6.89,5.48l-0.06,0.09l-0.8,1.62l3.49-44.06l-21.93-33.38l-46.15-18.43
		h-15.23l-46.16,18.43l-21.92,33.38l3.48,44.06l-0.8-1.62l-0.05-0.09c-0.96-1.65-3.53-5.48-6.89-5.48c-1.38,0-3.88,0.64-5.1,4.95
		c-1.58,5.55,1.18,22.78,2.26,25.58l9.24,23.59c0.34,0.88,3.55,8.54,9.59,8.54c0.42,0,0.85-0.04,1.26-0.12
		c0.18,0.73,0.36,1.45,0.54,2.17c1.97,7.92,3.57,14.58,4.56,18.76c1.04,4.36,2.77,8.44,5.14,12.13c2.82,4.4,7.56,11.35,14.06,19.48
		c12.06,15.07,26.24,16.1,26.84,16.14h0.09h22.96h0.09c0.6-0.04,14.77-1.07,26.84-16.14c6.5-8.12,11.23-15.07,14.06-19.48
		c2.37-3.69,4.1-7.77,5.13-12.13c0.99-4.16,2.59-10.8,4.57-18.76c0.18-0.72,0.36-1.44,0.54-2.17c0.42,0.08,0.84,0.12,1.26,0.12
		c6.04,0,9.25-7.66,9.6-8.55l9.24-23.58c1.08-2.8,3.83-20.02,2.25-25.58C305.32,171.2,302.82,170.56,301.44,170.56"/>
	<path class="st2" d="M309.35,174.66c-1.83-6.43-6.14-7.13-7.9-7.13c-1.52,0-2.9,0.47-4.1,1.18l0.48-6.04h-5.86l-2.37,29.97
		l7.47-15.04c0,0,2.33-4.01,4.39-4.01c0.88,0,1.71,0.72,2.29,2.79c1.33,4.66-1.27,21.59-2.16,23.58l-9.23,23.58
		c0,0-2.63,6.66-6.89,6.66c-0.68,0-1.4-0.17-2.15-0.56c-0.43-0.22-0.79-0.4-1.11-0.56c-0.46,1.82-0.92,3.65-1.37,5.44
		c-1.95,7.84-3.54,14.44-4.57,18.8c-0.95,3.99-2.54,7.77-4.73,11.18c-2.87,4.46-7.51,11.27-13.88,19.22
		c-11.4,14.23-24.75,15.05-24.75,15.05H210.1c0,0-13.36-0.81-24.75-15.05c-6.36-7.95-11.01-14.75-13.88-19.22
		c-2.19-3.42-3.78-7.2-4.73-11.18c-1.04-4.35-2.63-10.96-4.57-18.8c-0.45-1.79-0.91-3.63-1.37-5.44c-0.32,0.16-0.69,0.34-1.11,0.56
		c-0.75,0.39-1.47,0.56-2.15,0.56c-4.26,0-6.89-6.66-6.89-6.66l-9.23-23.58c-0.89-1.98-3.49-18.92-2.16-23.58
		c0.58-2.06,1.41-2.79,2.29-2.79c2.06,0,4.39,4.01,4.39,4.01l7.47,15.04l-2.37-29.97h-2.75c-1.17,0-2.22-0.19-3.15-0.53l0.52,6.57
		c-1.21-0.71-2.58-1.18-4.1-1.18c-1.76,0-6.07,0.7-7.9,7.13c-1.81,6.36,1,23.93,2.35,27.56l9.24,23.58
		c0.16,0.42,1.02,2.49,2.57,4.65c2.99,4.2,6.27,5.48,8.75,5.73c1.95,7.83,3.53,14.41,4.52,18.56c1.11,4.7,2.98,9.11,5.54,13.09
		c2.87,4.46,7.66,11.51,14.25,19.73c12.87,16.07,28.26,17.18,28.91,17.23l0.17,0.01h23.14l0.17-0.01
		c0.65-0.04,16.05-1.16,28.91-17.23c6.58-8.22,11.38-15.27,14.25-19.73c2.55-3.98,4.42-8.38,5.54-13.09
		c0.99-4.15,2.57-10.73,4.52-18.56c2.48-0.25,5.75-1.54,8.75-5.73c1.55-2.16,2.41-4.24,2.56-4.64l9.24-23.6h-0.01
		C308.35,198.59,311.15,181.02,309.35,174.66"/>
	<path class="st2" d="M279.03,88.96c0,0-11.2-25.31-28.88-27.75c-17.68-2.44-60.42-3.97-76.92,10.67
		c-16.51,14.64-26.82,25.92-26.23,38.72c0,0-7.66,37.8-0.59,67.38c7.07,29.58,9.43,32.94,9.43,32.94s0.29-59.77,3.83-68
		c3.54-8.24,8.84-23.79,27.7-23.79c18.86,0,67.49,1.52,76.92-6.71c0,0,16.21,13.12,20.33,36.9c4.13,23.79,3.77,52.56,3.77,57.43
		c0,0,5.4-14.94,8.15-35.68c2.45-18.43,3.11-56.5-2.78-67.17C287.87,93.23,279.03,88.96,279.03,88.96"/>
	<path class="st2" d="M200.53,183.63c-6.46,4.86-19.13,4.85-25.59,0c-1.31-0.98-3.14-0.68-4.08,0.67c-0.95,1.35-0.66,3.25,0.65,4.23
		c4.24,3.19,10.23,4.79,16.23,4.79c5.99,0,11.98-1.6,16.23-4.79c1.3-0.98,1.6-2.87,0.65-4.23
		C203.67,182.95,201.84,182.65,200.53,183.63"/>
	<path class="st2" d="M268.04,183.63c-6.46,4.85-19.13,4.85-25.59,0c-1.31-0.98-3.14-0.68-4.08,0.67c-0.95,1.35-0.66,3.25,0.65,4.23
		c4.24,3.19,10.23,4.79,16.23,4.79c5.99,0,11.99-1.6,16.23-4.79c1.3-0.98,1.6-2.87,0.65-4.23
		C271.18,182.95,269.35,182.65,268.04,183.63"/>
	<path class="st3" d="M417.87,381.27c-7.62-34.7-41.5-47.24-42.94-47.73c-0.54-0.19-54.4-19.04-73.23-25.89l-2.91-1.06l-2.93,2.36
		c-16.63,14.33-44.43,22.89-74.36,22.89c-29.92,0-57.72-8.56-74.36-22.89l-2.31-2.98c0,0-75.6,26.77-76.12,26.95
		c-1.46,0.5-35.97,13.66-43.59,48.36c-4.19,19.1-6.3,55.94-7.33,61.57l-0.04,0.24h407.5l-0.04-0.24
		C424.17,437.22,422.07,400.39,417.87,381.27"/>
	<path class="st1" d="M270.6,242.01c-1.27-0.69-2.7-1.05-4.13-1.05c-3.28,0-6.27,1.84-7.83,4.81l-20.86,34.69
		c-0.08-0.08-0.17-0.16-0.24-0.24l27.86-54.29l0.06-0.13c2.06-4.5,0.33-9.82-3.93-12.12c-1.27-0.68-2.69-1.04-4.11-1.04
		c-3.3,0-6.31,1.87-7.86,4.88l-29.76,52.36l-0.37-0.2l28.5-55.76l0.07-0.13c2.05-4.5,0.32-9.82-3.93-12.11
		c-1.27-0.69-2.69-1.05-4.11-1.05c-3.31,0-6.31,1.87-7.86,4.88l-29.86,52.83l22.51-43.42l0.07-0.15c2.05-4.5,0.32-9.81-3.93-12.11
		c-1.27-0.69-2.69-1.05-4.12-1.05c-3.33,0-6.36,1.9-7.86,4.89l-37.65,70.75l1.83-21.96c0.29-5.57-3.67-10.43-9.01-11.08l-2.52-0.31
		l-0.82,2.48c-0.38,1.15-3.68,11.22-4.21,15.54l-9.58,49.87l-0.01,0.13c-0.03,0.24-0.06,0.53-0.07,0.78
		c-0.08,1.45,0.99,15.72,2.68,21.26L97.32,443.08h82.12l26.38-79.04c11.23-4.16,20.56-12.65,25.77-23.49
		c0.24-0.51,0.48-1.03,0.72-1.57l42.21-84.9C276.54,249.61,274.82,244.31,270.6,242.01"/>
	<path class="st4" d="M271.95,239.34c-3.04-1.65-6.78-1.81-9.86-0.54l5.9-11.51l0.1-0.2c2.73-5.97,0.43-13.04-5.23-16.09
		c-1.68-0.91-3.56-1.38-5.46-1.38c-2.03,0-3.98,0.53-5.69,1.5c0.5-4.87-1.87-9.74-6.31-12.13c-1.68-0.91-3.57-1.38-5.46-1.38
		c-4.36,0-8.34,2.46-10.41,6.42l-1.59,2.8c-0.95-2.85-2.92-5.34-5.71-6.85c-1.68-0.91-3.58-1.38-5.46-1.38
		c-4.43,0-8.43,2.49-10.43,6.46l-30.99,58.24l0.64-7.72c0-0.04,0.01-0.07,0.01-0.1c0.37-7.16-4.72-13.41-11.59-14.25l-2.52-0.31
		c-1.37-0.17-2.66,0.68-3.11,2.03l-0.81,2.47c-0.62,1.89-3.74,11.45-4.34,16.03l-9.56,49.77c-0.02,0.08-0.03,0.17-0.04,0.25
		l-0.01,0.13c-0.04,0.3-0.07,0.65-0.08,0.96c-0.09,1.52,0.85,14.47,2.46,21.04L93.98,443.08h6.69l51.44-107.62
		c0.39-0.73,0.47-1.59,0.23-2.38c-1.52-5-2.59-18.62-2.55-20.18c0.01-0.2,0.03-0.42,0.05-0.61l9.55-49.75
		c0.01-0.07,0.02-0.13,0.04-0.21c0.4-3.28,2.76-10.93,4.08-14.94l0.06-0.17l0.17,0.02c3.8,0.46,6.62,3.91,6.44,7.86l-1.83,21.91
		c-0.12,1.42,0.74,2.74,2.06,3.15c1.32,0.41,2.74-0.18,3.41-1.44l37.69-70.82c1.01-2.01,3.03-3.26,5.27-3.26
		c0.95,0,1.9,0.24,2.76,0.7c2.86,1.54,4.02,5.11,2.67,8.07l-22.54,43.5c-0.75,1.45-0.24,3.26,1.15,4.07
		c1.39,0.81,3.15,0.31,3.95-1.11l29.86-52.83c0.02-0.04,0.04-0.07,0.06-0.1c1.04-2.03,3.06-3.28,5.28-3.28c0.96,0,1.9,0.24,2.76,0.7
		c2.86,1.54,4.02,5.11,2.67,8.07l-28.54,55.84c-0.37,0.72-0.44,1.56-0.2,2.34c0.24,0.78,0.77,1.41,1.48,1.78l0.37,0.19
		c1.37,0.7,3.04,0.2,3.82-1.18l29.76-52.36c0.02-0.04,0.04-0.07,0.06-0.11c1.04-2.02,3.07-3.28,5.28-3.28c0.96,0,1.91,0.24,2.76,0.7
		c2.86,1.54,4.02,5.11,2.66,8.08l-27.89,54.36c-0.62,1.21-0.37,2.7,0.6,3.64l0.21,0.21c0.64,0.63,1.52,0.92,2.39,0.81
		s1.65-0.63,2.11-1.4l20.86-34.69c0.03-0.05,0.06-0.1,0.09-0.15c1.05-2,3.06-3.23,5.26-3.23c0.96,0,1.92,0.24,2.77,0.7
		c2.82,1.54,3.99,5.07,2.66,8.07l-42.19,84.85c-0.02,0.04-0.04,0.09-0.06,0.13c-0.22,0.5-0.44,0.99-0.67,1.47
		c-4.84,10.07-13.64,18.09-24.14,21.98c-0.82,0.31-1.46,0.97-1.76,1.81l-26.74,80.08h6.23l25.54-76.7
		c11.34-4.59,20.8-13.44,26.11-24.49c0.25-0.52,0.49-1.05,0.73-1.59l42.18-84.83c0.01-0.04,0.03-0.07,0.05-0.1
		C279.86,249.43,277.56,242.38,271.95,239.34"/>
</g>
<g>
	<g>
		<path class="st5" d="M308.04,236.76c10.55-5.1,19.41-13.27,26.8-22.25c0-0.06,0-0.09,0-0.15c-9.8,1.83-14.71,2.75-24.51,4.62
			c0-0.97,0-1.45,0-2.41c10.87-2.59,21.74-5.16,32.61-7.72c0,1.16,0,1.75,0,2.91c-7.94,9.71-15.83,18.91-26.66,25.52
			c0,0.04,0,0.07,0,0.11c10.81,1.75,16.21,2.66,27.02,4.53c0,1.61,0,2.42,0,4.03c-11.73-2.62-23.49-5.14-35.26-7.59
			C308.04,237.72,308.04,237.4,308.04,236.76z"/>
		<path class="st5" d="M347.7,243.97c10.82-10.95,18.85-23.62,26.81-36.7c0-0.09,0-0.14,0-0.23c-9.8,1.8-14.71,2.7-24.51,4.51
			c0-1.74,0-2.62,0-4.36c10.87-2.55,21.74-5.1,32.61-7.66c0,1.75,0,2.62,0,4.37c-7.86,14.14-16.04,27.78-26.66,40.06
			c0,0.08,0,0.12,0,0.19c10.81,1.94,16.21,2.94,27.02,5.02c0,2.42,0,3.62,0,6.04c-11.73-2.87-23.49-5.63-35.27-8.28
			C347.7,245.75,347.7,245.16,347.7,243.97z"/>
		<path class="st5" d="M387.36,251.92c10.67-16.33,18.92-34.04,26.8-51.82c0-0.13,0-0.19,0-0.32c-9.8,1.8-14.71,2.69-24.51,4.49
			c0-2.56,0-3.83,0-6.39c10.87-2.56,21.74-5.14,32.61-7.73c0,2.36,0,3.55,0,5.91c-7.87,18.91-16.1,37.73-26.66,55.32
			c0,0.11,0,0.17,0,0.28c10.81,2.16,16.21,3.27,27.02,5.6c0,3.26,0,4.9,0,8.16c-11.72-3.17-23.48-6.21-35.26-9.12
			C387.36,254.55,387.36,253.67,387.36,251.92z"/>
	</g>
</g>
</svg>
