<?xml version="1.0" encoding="utf-8"?>
<!-- Generator: Adobe Illustrator 24.1.0, SVG Export Plug-In . SVG Version: 6.00 Build 0)  -->
<svg version="1.1" id="Layer_1" xmlns="http://www.w3.org/2000/svg" xmlns:xlink="http://www.w3.org/1999/xlink" x="0px" y="0px"
	 viewBox="0 0 490.32 490.54" style="enable-background:new 0 0 490.32 490.54;" xml:space="preserve">
<style type="text/css">
	.st0{fill:#C4DEE9;}
	.st1{clip-path:url(#SVGID_2_);fill:#FFFFFF;}
	.st2{clip-path:url(#SVGID_2_);fill:#2A4D7B;}
	.st3{clip-path:url(#SVGID_2_);fill:#156DA4;}
	.st4{clip-path:url(#SVGID_4_);fill:#E74F3D;}
</style>
<rect x="-7" y="-6" class="st0" width="501.6" height="501.54"/>
<g>
	<defs>
		<rect id="SVGID_1_" width="488.38" height="488.32"/>
	</defs>
	<clipPath id="SVGID_2_">
		<use xlink:href="#SVGID_1_"  style="overflow:visible;"/>
	</clipPath>
	<path class="st1" d="M231.94,277.15l36.3,18.88c8.47,2.27,17.26-2.38,20.12-10.73l0.17-0.49l9.2-14.09l-25.92-13.75l3.73-4
		c0.44-0.47,11.03-11.53,30.39-7.87c3.92,0.74,6.31,0.06,7.47-0.49l6.1-26.25h15.93l0.58,0.17c0.83,0.24,1.67,0.09,2.51-0.46
		c1.07-0.7,1.64-1.72,1.74-2.12l-8.18-54.74l0.37-1.01c6.25-16.88,8.54-32.73,6.86-47.38c-12.03,0.71-56.51-3.09-75.77,3.1
		c-12.41,3.99-23.83,27.78-23.83,27.78s-26.5-15.15-35.46,15.53c-5.63,19.29,1.9,30.16,1.9,30.16s-30.31,25.4-40.29,33.72
		c-3.15,2.63-7.83,5.94-11.83,8.66c-0.11,0.39-0.23,0.77-0.38,1.13l-0.2,0.41l-33.24,59.15c7.71,7.99,15.7,14.94,23.65,20.97
		c6.82,4.38,15.5,9.61,26.6,15.87c7.13,4.02,14.25,7.9,20.83,11.4c8.59,3.6,15.93,6.03,21.26,7.59l-4.77-18.57L231.94,277.15z"/>
	<path class="st2" d="M279.04,32.96c5.59,2.43,11.61,5.17,17.77,8.06C291.25,37.98,285.32,35.28,279.04,32.96"/>
	<path class="st2" d="M124.65,134.08c-1.47,15.62,0.32,32.22,6.93,57.09c0.29,1.09,0.76,2.38,1.35,3.83
		C128.47,177.13,124.62,155.49,124.65,134.08"/>
	<path class="st2" d="M120.2,292.45l33.24-59.15l0.2-0.41c0.15-0.36,0.27-0.74,0.38-1.13c-4.26,2.9-7.74,5.13-7.74,5.13
		s-0.7-1.67-1.84-4.7l-31.21,55.54c1.09-0.64,1.68-0.96,1.68-0.96C116.66,288.72,118.43,290.61,120.2,292.45"/>
	<path class="st2" d="M342,112.41c-0.47,0.2-1.39,0.33-2.68,0.4c1.67,14.66-0.61,30.5-6.86,47.38l-0.37,1.01l8.18,54.74
		c-0.1,0.4-0.67,1.42-1.74,2.12c-0.84,0.55-1.68,0.71-2.51,0.46l-0.58-0.17h-15.93l-6.1,26.25c-1.16,0.54-3.55,1.23-7.47,0.49
		c-19.36-3.66-29.95,7.4-30.39,7.87l-3.73,4l25.92,13.75l-9.2,14.09l-0.17,0.49c-2.86,8.34-11.65,13-20.12,10.73l-36.3-18.88
		l-24.17,52.57l4.77,18.57c5.43,1.58,8.78,2.27,9.26,2.37l-5.17-20.14l19.25-41.87l29.24,15.2l0.39,0.12
		c12.72,3.71,26.05-3.05,30.59-15.43l13.66-20.92l-23.16-12.29c3.79-1.86,9.75-3.51,17.77-2c10.22,1.93,15.17-2.67,15.7-3.21
		l0.85-0.85l5.23-22.54h8.15c3.66,0.83,7.54-0.26,10.5-2.98c2.82-2.59,4.27-6.16,3.73-9.13l-7.85-52.54
		c6.64-18.33,8.83-36.01,6.6-52.34C345.67,110.71,343.92,111.61,342,112.41"/>
	<path class="st2" d="M143.86,313.42c16.96,12.86,33.77,21.55,47.43,27.27c-6.58-3.51-13.7-7.39-20.83-11.4
		C159.36,323.03,150.68,317.8,143.86,313.42"/>
	<path class="st2" d="M154.03,231.75c3.99-2.72,8.67-6.03,11.83-8.66c9.98-8.32,40.29-33.72,40.29-33.72s-7.53-10.86-1.9-30.16
		c8.96-30.68,35.46-15.53,35.46-15.53s11.42-23.79,23.83-27.78c19.26-6.19,63.75-2.39,75.77-3.1c1.29-0.08,2.21-0.2,2.68-0.4
		c1.91-0.8,3.66-1.7,5.29-2.66c19.8-11.69,19.29-33.81,19.29-33.81s-37.01-19.58-69.77-34.92c-6.17-2.89-12.18-5.63-17.78-8.05
		c-8.8-3.82-16.54-6.88-22.16-8.55C193.25,5.47,145.63,42.34,129.52,96.92c-3.46,11.73-4.85,24.4-4.87,37.16
		c-0.03,21.41,3.82,43.05,8.28,60.93c4.22,16.9,8.98,30.43,11.52,37.19c1.14,3.03,1.84,4.7,1.84,4.7S149.77,234.66,154.03,231.75"/>
	<path class="st3" d="M221.8,350.65c-0.49-0.1-3.84-0.78-9.26-2.36c-5.33-1.56-12.67-3.99-21.26-7.59
		c-13.65-5.73-30.47-14.42-47.43-27.27c-7.96-6.03-15.95-12.98-23.65-20.97c-1.78-1.84-3.54-3.73-5.28-5.68c0,0-0.59,0.33-1.68,0.97
		c-12.34,7.2-127.45,66.17-142.34,217.23c53.78,65.63,164.06,18.02,255.53,18.02c19.46,0,38.48-1.91,56.89-5.53
		c-7.04-76.59-61.45-166.79-61.45-166.79S221.85,350.66,221.8,350.65"/>
	<circle class="st3" cx="359.53" cy="306.7" r="12.21"/>
	<circle class="st3" cx="423.98" cy="337.75" r="11.24"/>
	<circle class="st3" cx="324.78" cy="289.91" r="11.24"/>
	<circle class="st3" cx="325.31" cy="263.22" r="5.62"/>
	<circle class="st3" cx="351.33" cy="340.35" r="12.21"/>
	<circle class="st3" cx="390.8" cy="336.84" r="8.31"/>
	<circle class="st3" cx="374.12" cy="287.51" r="6.16"/>
	<circle class="st3" cx="387.19" cy="362.12" r="6.16"/>
	<circle class="st3" cx="404.23" cy="322.27" r="6.16"/>
	<circle class="st3" cx="429.08" cy="319.81" r="3.08"/>
	<circle class="st3" cx="390.64" cy="310.29" r="3.08"/>
	<circle class="st3" cx="338.92" cy="275.45" r="3.08"/>
	<circle class="st3" cx="404.39" cy="281.99" r="12.21"/>
	<circle class="st3" cx="354" cy="270.64" r="6.16"/>
</g>
<g>
	<defs>
		<rect id="SVGID_3_" x="158.4" y="238.95" width="108.73" height="73.57"/>
	</defs>
	<clipPath id="SVGID_4_">
		<use xlink:href="#SVGID_3_"  style="overflow:visible;"/>
	</clipPath>
	<path class="st4" d="M180.83,267.79l2.99,2.71l-3.01-2.68c-1.48,1.67-1.33,4.21,0.33,5.69c0.8,0.71,1.79,1.04,2.78,1.02
		c1.08-0.02,2.14-0.48,2.92-1.35l0.13-0.15c1.44-1.69,1.23-4.21-0.45-5.66C184.83,265.92,182.29,266.12,180.83,267.79"/>
	<path class="st4" d="M191.77,257.17l-0.04,0.03c-1.73,1.41-1.99,3.95-0.59,5.67c0.82,1.01,2.02,1.52,3.23,1.49
		c0.86-0.02,1.72-0.32,2.45-0.9l0.13-0.11c1.7-1.43,1.93-3.97,0.5-5.67C196.02,255.96,193.48,255.74,191.77,257.17"/>
	<path class="st4" d="M177.31,278.69c-1.86-1.22-4.36-0.71-5.58,1.16l-0.08,0.12c-1.21,1.87-0.67,4.37,1.2,5.58
		c0.71,0.45,1.5,0.66,2.27,0.64c1.29-0.03,2.55-0.68,3.3-1.85l0.04-0.07C179.68,282.42,179.16,279.91,177.31,278.69"/>
	<path class="st4" d="M169.67,291.16c-2.01-0.97-4.42-0.12-5.38,1.88l-0.05,0.1c-0.97,2-0.12,4.41,1.88,5.38
		c0.59,0.29,1.22,0.42,1.84,0.4c1.47-0.03,2.86-0.87,3.54-2.28l0.05-0.1C172.52,294.54,171.68,292.13,169.67,291.16"/>
	<path class="st4" d="M163.6,304.51c-2.14-0.63-4.37,0.6-5,2.74l-0.04,0.12c-0.61,2.14,0.62,4.37,2.76,4.99
		c0.4,0.12,0.81,0.17,1.21,0.15c1.72-0.04,3.28-1.18,3.78-2.91l0.03-0.1C166.96,307.37,165.74,305.13,163.6,304.51"/>
	<path class="st4" d="M248.8,238.96h-0.04c-2.22-0.11-4.13,1.57-4.25,3.8c-0.12,2.22,1.57,4.13,3.8,4.25l0.19,0.01
		c0.08,0.01,0.16,0.01,0.24,0.01c2.11-0.05,3.83-1.73,3.92-3.87C252.75,240.93,251.01,239.06,248.8,238.96"/>
	<path class="st4" d="M263.83,240.82l-0.82,3.95l0.78-3.95c-2.18-0.43-4.31,0.99-4.73,3.17c-0.43,2.18,0.99,4.31,3.17,4.74l0.2,0.03
		c0.27,0.05,0.53,0.07,0.79,0.06c1.87-0.04,3.5-1.39,3.85-3.31C267.46,243.33,266.01,241.23,263.83,240.82"/>
	<path class="st4" d="M233.67,239.4l-0.19,0.02c-2.21,0.27-3.77,2.28-3.5,4.49c0.25,2.08,2.06,3.59,4.11,3.54
		c0.13,0,0.27-0.01,0.4-0.02c2.21-0.23,3.83-2.21,3.6-4.42C237.86,240.79,235.88,239.16,233.67,239.4"/>
	<path class="st4" d="M218.62,242.56l-0.09,0.03c-2.13,0.66-3.31,2.92-2.66,5.04c0.55,1.76,2.19,2.87,3.94,2.84
		c0.37-0.01,0.74-0.07,1.11-0.18l0.12-0.04c2.13-0.67,3.3-2.93,2.64-5.06C223.01,243.08,220.75,241.89,218.62,242.56"/>
	<path class="st4" d="M204.47,248.58l-0.05,0.03c-1.96,1.06-2.69,3.5-1.63,5.46c0.74,1.38,2.17,2.14,3.64,2.11
		c0.61-0.02,1.24-0.17,1.82-0.49l0.15-0.07c1.95-1.08,2.64-3.54,1.56-5.48C208.87,248.19,206.41,247.49,204.47,248.58"/>
</g>
</svg>
